<svg width="179" height="32" viewBox="0 0 179 32" fill="none" xmlns="http://www.w3.org/2000/svg">
<path d="M15.8221 0.00555942C7.04749 0.214964 0 7.29581 0 16C0 24.7042 7.04749 31.785 15.8221 31.9944V32H19.8786V0H15.8221V0.00555942Z" fill="#FF03C8"/>
<path d="M24.8784 3.99351L24.8877 28.2715L37.1814 16.1371L24.8784 3.99351Z" fill="#FF03C8"/>
<path d="M177.722 11.9926C178.063 11.9926 178.329 12.0167 178.524 12.063V14.789C178.281 14.7649 178.063 14.7408 177.697 14.7408C175.194 14.7408 173.274 16.1158 173.274 19.3384V25.3111H170.528V12.2743H173.274V14.8575C174.076 13.0322 175.607 11.9889 177.722 11.9889V11.9926ZM161.095 14.3164C159.005 14.3164 157.595 15.597 157.133 17.35H164.911C164.498 15.5729 163.111 14.3164 161.095 14.3164ZM161.095 11.9926C165.398 11.9926 168.12 15.2393 167.852 19.5312H156.987C157.205 21.9254 158.931 23.2523 161.168 23.2523C162.772 23.2523 164.108 22.5888 164.74 21.3083H167.585C166.54 24.2233 163.988 25.5983 161.143 25.5983C157.085 25.5983 154.192 22.7538 154.192 18.8196C154.192 14.8853 157.061 11.9926 161.095 11.9926ZM150.327 12.2761H153.243L148.431 25.313H145.101L140.288 12.2761H143.205L146.754 22.5166L150.327 12.2761ZM135.401 7.06325H138.172V25.3148H135.401V7.06325ZM125.704 14.5518C123.395 14.5518 121.547 16.2826 121.547 18.7955C121.547 21.3083 123.371 23.0392 125.704 23.0392C128.037 23.0392 129.861 21.3083 129.861 18.7955C129.861 16.2826 128.013 14.5518 125.704 14.5518ZM125.704 11.9926C129.544 11.9926 132.631 14.8613 132.631 18.7955C132.631 22.7297 129.592 25.5983 125.704 25.5983C121.816 25.5983 118.777 22.6834 118.777 18.7955C118.777 14.9076 121.888 11.9926 125.704 11.9926ZM109.541 14.5518C107.232 14.5518 105.384 16.2826 105.384 18.7955C105.384 21.3083 107.208 23.0392 109.541 23.0392C111.874 23.0392 113.697 21.3083 113.697 18.7955C113.697 16.2826 111.85 14.5518 109.541 14.5518ZM109.541 11.9926C113.381 11.9926 116.468 14.8613 116.468 18.7955C116.468 22.7297 113.429 25.5983 109.541 25.5983C105.653 25.5983 102.614 22.6834 102.614 18.7955C102.614 14.9076 105.725 11.9926 109.541 11.9926ZM93.9356 25.5983C89.9736 25.5983 87.0086 22.6834 87.0086 18.7955C87.0086 14.9076 89.9736 11.9926 93.9597 11.9926C97.1193 11.9926 99.9157 13.8643 100.522 17.0183H97.6771C97.1675 15.382 95.6831 14.4814 93.9579 14.4814C91.4784 14.4814 89.7772 16.2826 89.7772 18.7955C89.7772 21.3083 91.5265 23.1096 93.9338 23.1096C95.6831 23.1096 97.1656 22.1608 97.6771 20.5504H100.522C99.8898 23.7749 97.0693 25.5983 93.9338 25.5983H93.9356ZM79.1568 25.5983C75.6322 25.5983 73.1045 23.9398 72.5949 21.1193H75.3894C75.8027 22.5648 76.896 23.2282 79.205 23.2282C80.9803 23.2282 82.0737 22.7074 82.0737 21.7345C82.0737 20.6449 80.8098 20.4781 78.5731 19.9574C74.8298 19.0568 73.249 18.3211 73.249 16.1418C73.249 13.5103 75.5339 11.9944 78.8881 11.9944C82.2423 11.9944 84.2363 13.5826 84.7218 15.9528H81.9514C81.5622 14.8853 80.5411 14.3646 78.8399 14.3646C77.1388 14.3646 76.0195 14.9576 76.0195 15.8582C76.0195 16.6884 76.846 16.9016 79.1791 17.4464C82.8001 18.2766 84.8904 18.8918 84.8904 21.4288C84.8904 24.2252 82.3146 25.6002 79.155 25.6002H79.1568V25.5983ZM67.319 25.3148V12.278H70.0653V25.3148H67.319ZM68.681 6.39982C69.7262 6.39982 70.4804 7.08734 70.4804 8.03614C70.4804 8.98495 69.7262 9.71879 68.681 9.71879C67.6359 9.71879 66.9057 9.00719 66.9057 8.03614C66.9057 7.0651 67.6841 6.39982 68.681 6.39982ZM57.2805 23.0392C59.6136 23.0392 61.3889 21.3083 61.3889 18.7955C61.3889 16.2826 59.6136 14.5518 57.2805 14.5518C54.9474 14.5518 53.2944 16.3067 53.2944 18.7955C53.2944 21.2842 54.9715 23.0392 57.2805 23.0392ZM61.3889 7.06325H64.1353V25.3148H61.3889V23.1337C60.3919 24.6032 58.789 25.5983 56.6986 25.5983C53.1258 25.5983 50.524 22.7779 50.524 18.7955C50.524 14.8131 53.174 11.9926 56.6727 11.9926C58.7871 11.9926 60.3919 13.0118 61.3889 14.5055V7.06325Z" fill="#FF03C8"/>
</svg>
