<svg width="24" height="25" viewBox="0 0 24 25" fill="none" xmlns="http://www.w3.org/2000/svg">
<path d="M18 22.5002C19.6569 22.5002 21 21.1571 21 19.5002C21 17.8433 19.6569 16.5002 18 16.5002C16.3431 16.5002 15 17.8433 15 19.5002C15 21.1571 16.3431 22.5002 18 22.5002Z" stroke="black" stroke-width="1.5" stroke-linecap="round" stroke-linejoin="round"/>
<path d="M18 8.50018C19.6569 8.50018 21 7.15703 21 5.50018C21 3.84333 19.6569 2.50018 18 2.50018C16.3431 2.50018 15 3.84333 15 5.50018C15 7.15703 16.3431 8.50018 18 8.50018Z" stroke="black" stroke-width="1.5" stroke-linecap="round" stroke-linejoin="round"/>
<path d="M6 15.5002C7.65685 15.5002 9 14.1571 9 12.5002C9 10.8433 7.65685 9.50018 6 9.50018C4.34315 9.50018 3 10.8433 3 12.5002C3 14.1571 4.34315 15.5002 6 15.5002Z" stroke="black" stroke-width="1.5" stroke-linecap="round" stroke-linejoin="round"/>
<path d="M15.5 7.00018L8.5 11.0002" stroke="black" stroke-width="1.5"/>
<path d="M8.5 14.0002L15.5 18.0002" stroke="black" stroke-width="1.5"/>
</svg>
